<?xml version="1.0" standalone="no"?><!DOCTYPE svg PUBLIC "-//W3C//DTD SVG 1.1//EN" "http://www.w3.org/Graphics/SVG/1.1/DTD/svg11.dtd"><svg t="1540863806070" class="icon" style="" viewBox="0 0 1024 1024" version="1.1" xmlns="http://www.w3.org/2000/svg" p-id="3200" xmlns:xlink="http://www.w3.org/1999/xlink" width="32" height="32"><defs><style type="text/css"></style></defs><path d="M374.208 129.195H226.48c-59.602 0-109.516 49.447-109.516 109.05v147.727c0 59.602 49.915 107.015 109.517 107.015h254.272v-254.74c0-59.603-46.943-109.05-106.545-109.05z m53.176 310.423H226.48c-29.801 0-55.26-23.844-55.26-53.647V238.244c0-29.802 25.46-54.793 55.26-54.793h147.727c29.801 0 53.177 24.99 53.177 54.792v201.373z m361.178-310.423H640.834c-59.602 0-109.384 49.447-109.384 109.05v254.739h257.111c59.602 0 106.679-47.412 106.679-107.014V238.243c0.001-59.603-47.077-109.05-106.679-109.05z m52.423 256.777c0 29.802-22.622 53.647-52.422 53.647H584.819V238.247c0-29.802 26.216-54.793 56.017-54.793h147.727c29.802 0 52.422 24.99 52.422 54.792v147.727zM116.963 652.601v147.727c0 59.603 49.915 107.15 109.517 107.15h147.727c59.602 0 106.546-47.546 106.546-107.15V543.686H226.481c-59.602 0-109.516 49.314-109.516 108.916z m310.421 147.728c0 29.802-23.378 52.892-53.177 52.892H226.48c-29.802 0-55.26-23.09-55.26-52.892V652.601c0-29.801 25.46-55.548 55.26-55.548h200.905l-0.002 203.275z m361.178-256.644H531.451v256.642c0 59.603 49.782 107.15 109.385 107.15h147.727c59.602 0 106.679-47.546 106.679-107.15V652.6c0.001-59.602-47.077-108.916-106.679-108.916z m52.423 256.644c0 29.802-22.622 52.892-52.422 52.892H640.835c-29.802 0-56.017-23.09-56.017-52.892V597.055h203.744c29.802 0 52.422 25.747 52.422 55.549v147.727z" fill="" p-id="3201"></path></svg>